<svg width="613" height="137" viewBox="0 0 613 137" fill="none" xmlns="http://www.w3.org/2000/svg">
<path fill-rule="evenodd" clip-rule="evenodd" d="M235.092 40.3904C248.123 40.4043 254.73 40.6509 260.23 42.5854C274.097 47.4272 276.046 57.3631 276.046 64.148C276.046 72.4843 273.035 81.332 261.695 84.6118L278.361 113.378H288.489V125.298C284.473 125.538 281.936 125.768 279.265 125.957C276.599 126.173 274.465 126.284 272.869 126.284C269.592 126.284 267.141 125.791 265.521 124.787C263.878 123.813 262.417 122.106 261.145 119.642L243.641 87.5702H234.143V106.436H215.929V53.331H208.202V40.3897L235.092 40.3904ZM69.3266 40.0924C73.4286 40.0924 76.2167 40.8789 77.7081 42.4424C79.198 44.0187 79.899 46.5978 79.899 50.1869V93.2336H88.0187V104.939C88.0187 104.939 78.1668 106.301 72.3031 106.301C69.1477 106.301 66.8006 105.84 65.2226 104.939C63.655 104.051 62.604 102.613 62.0756 100.642C59.1915 102.795 51.8006 107.681 42.7703 107.681C36.8986 107.681 30.532 105.994 25.7695 101.448C23.9576 99.7028 20.9192 94.8687 20.9192 85.4149V53.1489H12.7964V41.3092C15.3353 40.938 18.1248 40.6573 21.1959 40.4249C24.2308 40.1917 26.6837 40.0924 28.5232 40.0924C32.6286 40.0924 35.4233 40.8789 36.9195 42.4424C38.3966 44.0187 39.1382 46.5978 39.1382 50.1869V82.8583C39.1382 85.821 39.6537 88.234 41.2348 89.4459C45.1969 92.5065 53.445 91.3625 55.5858 91.1291C57.7325 90.9144 59.7692 90.5844 61.6869 90.1263V53.1489H53.5912V41.3092C56.1385 40.938 58.928 40.6573 61.9827 40.4249C65.0391 40.1917 67.4952 40.0924 69.3266 40.0924ZM186.692 40.0924C190.894 40.0924 193.709 40.8789 195.206 42.4424C196.704 44.0187 197.432 46.6013 197.432 50.1869V106.44H179.218V53.1525H170.572V41.4312C171.865 41.254 173.27 41.1041 174.772 40.9592C174.772 40.9592 182.899 40.0924 186.692 40.0924ZM139.328 38.7427C154.126 38.7427 159.113 49.9581 159.113 60.9645V93.2336H167.054V104.939C167.054 104.939 160.043 105.816 158.658 105.963C157.262 106.085 155.899 106.179 154.603 106.234C153.412 106.265 152.455 106.281 151.636 106.301H151.328C151.143 106.301 150.979 106.274 150.793 106.274C150.461 106.265 150.137 106.262 149.812 106.234C148.56 106.172 147.459 106.014 146.509 105.776C146.421 105.76 146.364 105.741 146.289 105.717C145.518 105.523 144.032 104.971 143.119 103.999C141.618 102.402 140.906 99.7778 140.906 96.18V63.5197C140.906 60.4754 140.198 58.264 138.793 56.9219C137.922 56.1153 136.785 55.5494 135.398 55.3089C127.187 53.8646 119.93 55.8068 118.092 56.2613V105.745H99.8648V53.1489H90.8357V41.4287C93.3686 40.9847 101.986 40.0924 107.215 40.0924C110.449 40.0924 112.877 40.5395 114.502 41.4287C116.109 42.3291 117.221 43.7297 117.825 45.6134C125.474 39.2131 135.487 38.7427 139.328 38.7427ZM244.197 52.9677H234.143V75.2726H244.912C254.306 75.2726 257.865 69.1463 257.865 63.9064C257.865 58.9078 256.424 52.9677 244.197 52.9677ZM185.513 8.53088C188.55 8.53088 190.869 9.21399 192.38 10.5486C193.833 11.8684 194.581 14.1352 194.581 17.3103V19.1063C194.581 22.2855 193.852 24.5248 192.38 25.7969C190.869 27.0873 188.561 27.7477 185.513 27.7477H184.555C181.444 27.7477 179.101 27.1009 177.65 25.8055C176.216 24.5373 175.479 22.2814 175.479 19.1063V17.3103C175.479 14.1508 176.216 11.8684 177.65 10.5486C179.131 9.2095 181.455 8.53088 184.555 8.53088H185.513Z" fill="black"/>
<path d="M306.848 65.9906H323.127V62.6252H310.653V40.3842H306.848V65.9906ZM344.647 65.9906H348.597L338.538 40.3842H335.026L324.966 65.9906H328.881L331.331 59.4793H342.196L344.647 65.9906ZM332.612 56.1504L336.782 45.1397L340.952 56.1504H332.612ZM371.411 66.2832C377.3 66.2832 381.251 62.8813 381.251 57.0284V40.3842H377.593V57.1381C377.593 60.7962 375.106 62.8813 371.411 62.8813C367.753 62.8813 365.265 60.7962 365.265 57.1381V40.3842H361.607V57.0284C361.607 62.8813 365.558 66.2832 371.411 66.2832ZM387.078 65.9906H390.883V46.3103L403.247 65.9906H407.454V40.3842H403.649V60.1011L391.322 40.3842H387.078V65.9906ZM413.753 65.9906H417.558V40.3842H413.753V65.9906ZM431.059 65.9906H434.827L444.375 40.3842H440.534L432.925 61.418L425.353 40.3842H421.512L431.059 65.9906ZM448.313 65.9906H465.141V62.6252H452.118V54.4677H462.324V51.1023H452.118V43.7496H464.738V40.3842H448.313V65.9906ZM484.868 53.8459C487.136 52.7119 488.636 50.8097 488.636 48.0661C488.636 43.4936 485.49 40.3842 480.332 40.3842H470.309V65.9906H474.113V55.8944H480.515C482.71 55.8944 484.21 57.5039 484.392 59.7719L484.905 65.9906H488.599L488.087 59.4427C487.941 56.9552 486.734 54.9433 484.868 53.8459ZM474.113 43.6765H480.222C483.551 43.6765 484.831 45.725 484.831 48.0661C484.831 50.3707 483.551 52.529 480.222 52.529H474.113V43.6765ZM503.038 66.2832C508.525 66.2832 512.476 63.5397 512.476 58.8574C512.476 49.0904 497.88 53.224 497.88 47.0053C497.88 44.847 499.746 43.457 502.819 43.457C505.965 43.457 508.013 45.1763 508.269 47.8101H511.964C511.635 43.1278 508.05 40.0916 502.819 40.0916C497.661 40.0916 494.076 42.9083 494.076 47.0053C494.076 56.4431 508.599 52.7484 508.599 58.894C508.599 61.6741 506.257 62.9178 503.038 62.9178C499.417 62.9178 497.259 60.7962 496.966 57.5039H493.271C493.564 62.8081 497.259 66.2832 503.038 66.2832ZM517.408 65.9906H521.212V40.3842H517.408V65.9906ZM527.508 65.9906H535.372C542.506 65.9906 548.285 61.5278 548.285 53.1874C548.285 44.847 542.506 40.3842 535.372 40.3842H527.508V65.9906ZM531.312 62.6252V43.7496H535.153C539.908 43.7496 544.371 46.42 544.371 53.1874C544.371 59.9548 539.908 62.6252 535.153 62.6252H531.312ZM569.807 65.9906H573.758L563.698 40.3842H560.187L550.127 65.9906H554.041L556.492 59.4793H567.356L569.807 65.9906ZM557.772 56.1504L561.942 45.1397L566.113 56.1504H557.772ZM577.571 65.9906H585.436C592.569 65.9906 598.349 61.5278 598.349 53.1874C598.349 44.847 592.569 40.3842 585.436 40.3842H577.571V65.9906ZM581.376 62.6252V43.7496H585.217C589.972 43.7496 594.435 46.42 594.435 53.1874C594.435 59.9548 589.972 62.6252 585.217 62.6252H581.376ZM306.848 105.991H323.675V102.625H310.653V94.4677H320.859V91.1023H310.653V83.7496H323.273V80.3842H306.848V105.991ZM328.844 105.991H332.648V86.3103L345.012 105.991H349.219V80.3842H345.415V100.101L333.087 80.3842H328.844V105.991ZM365.047 105.991H368.851V80.3842H365.047V105.991ZM375.147 105.991H378.951V86.3103L391.315 105.991H395.522V80.3842H391.718V100.101L379.39 80.3842H375.147V105.991ZM407.638 105.991H411.443V83.7496H419.454V80.3842H399.627V83.7496H407.638V105.991ZM423.282 105.991H440.109V102.625H427.086V94.4677H437.292V91.1023H427.086V83.7496H439.706V80.3842H423.282V105.991ZM459.836 93.8459C462.104 92.7119 463.604 90.8097 463.604 88.0661C463.604 83.4936 460.458 80.3842 455.3 80.3842H445.277V105.991H449.081V95.8944H455.483C457.678 95.8944 459.178 97.5039 459.361 99.7719L459.873 105.991H463.567L463.055 99.4427C462.909 96.9552 461.702 94.9433 459.836 93.8459ZM449.081 83.6765H455.19C458.519 83.6765 459.799 85.725 459.799 88.0661C459.799 90.3707 458.519 92.529 455.19 92.529H449.081V83.6765ZM470.273 105.991H474.078V86.3103L486.442 105.991H490.649V80.3842H486.844V100.101L474.517 80.3842H470.273V105.991ZM496.948 105.991H513.776V102.625H500.753V94.4677H510.959V91.1023H500.753V83.7496H513.373V80.3842H496.948V105.991ZM524.76 105.991H528.565V83.7496H536.576V80.3842H516.749V83.7496H524.76V105.991Z" fill="#1868AF"/>
</svg>
